<svg width="37" height="38" viewBox="0 0 37 38" fill="none" xmlns="http://www.w3.org/2000/svg">
<path d="M14.9012 0.960938H3.42042C2.06202 0.960938 0.960815 2.06214 0.960815 3.42055V9.98055C0.960815 11.3389 2.06202 12.4402 3.42042 12.4402H14.9012C16.2596 12.4402 17.3608 11.3389 17.3608 9.98055V3.42055C17.3608 2.06214 16.2596 0.960938 14.9012 0.960938Z" fill="white"/>
<path d="M14.9012 1.74512H3.42041C2.49517 1.74512 1.74512 2.49517 1.74512 3.42041V9.98041C1.74512 10.9057 2.49517 11.6557 3.42041 11.6557H14.9012C15.8264 11.6557 16.5765 10.9057 16.5765 9.98041V3.42041C16.5765 2.49517 15.8264 1.74512 14.9012 1.74512Z" stroke="white" stroke-miterlimit="10"/>
<path d="M34.3975 0.960938H22.9168C21.5584 0.960938 20.4572 2.06214 20.4572 3.42055V19.8205C20.4572 21.1789 21.5584 22.2802 22.9168 22.2802H34.3975C35.7559 22.2802 36.8572 21.1789 36.8572 19.8205V3.42055C36.8572 2.06214 35.7559 0.960938 34.3975 0.960938Z" fill="#1A91FA"/>
<path d="M14.9012 15.72H3.42042C2.06202 15.72 0.960815 16.8212 0.960815 18.1796V34.5796C0.960815 35.938 2.06202 37.0392 3.42042 37.0392H14.9012C16.2596 37.0392 17.3608 35.938 17.3608 34.5796V18.1796C17.3608 16.8212 16.2596 15.72 14.9012 15.72Z" fill="#1A91FA"/>
<path d="M34.3975 25.5598H22.9168C21.5584 25.5598 20.4572 26.661 20.4572 28.0194V34.5794C20.4572 35.9378 21.5584 37.039 22.9168 37.039H34.3975C35.7559 37.039 36.8572 35.9378 36.8572 34.5794V28.0194C36.8572 26.661 35.7559 25.5598 34.3975 25.5598Z" fill="white"/>
<path d="M34.3975 26.344H22.9167C21.9915 26.344 21.2415 27.094 21.2415 28.0193V34.5793C21.2415 35.5045 21.9915 36.2546 22.9167 36.2546H34.3975C35.3228 36.2546 36.0728 35.5045 36.0728 34.5793V28.0193C36.0728 27.094 35.3228 26.344 34.3975 26.344Z" stroke="white" stroke-miterlimit="10"/>
</svg>
