<svg width="51" height="51" viewBox="0 0 51 51" fill="none" xmlns="http://www.w3.org/2000/svg">
<path d="M34.3449 13.272C33.5481 13.272 32.7693 13.5082 32.1068 13.9509C31.4444 14.3935 30.9281 15.0226 30.6232 15.7587C30.3183 16.4948 30.2385 17.3048 30.3939 18.0862C30.5494 18.8676 30.933 19.5854 31.4964 20.1488C32.0598 20.7121 32.7776 21.0958 33.559 21.2512C34.3404 21.4067 35.1504 21.3269 35.8864 21.022C36.6225 20.7171 37.2517 20.2008 37.6943 19.5383C38.1369 18.8759 38.3732 18.097 38.3732 17.3003C38.3705 16.2328 37.9452 15.2097 37.1903 14.4548C36.4355 13.7 35.4124 13.2747 34.3449 13.272V13.272Z" stroke="#CEDBDC" stroke-width="1.4" stroke-miterlimit="10"/>
<path d="M19.7533 11C18.6379 11 17.5475 11.3308 16.6201 11.9505C15.6926 12.5702 14.9698 13.4509 14.5429 14.4815C14.1161 15.512 14.0044 16.6459 14.222 17.7399C14.4396 18.8339 14.9767 19.8388 15.7655 20.6275C16.5542 21.4162 17.5591 21.9534 18.6531 22.171C19.7471 22.3886 20.881 22.2769 21.9115 21.85C22.942 21.4232 23.8228 20.7003 24.4425 19.7729C25.0622 18.8455 25.393 17.7551 25.393 16.6397C25.3899 15.1449 24.7947 13.7122 23.7377 12.6552C22.6808 11.5983 21.2481 11.0031 19.7533 11V11Z" stroke="#CEDBDC" stroke-width="1.6" stroke-miterlimit="10"/>
<path d="M33.3649 38.1262L32.4757 30.9572L28.6994 28.5798L26.3746 27.9162C26.3746 27.9162 26.6149 27.7331 26.7423 27.6437C26.8165 27.592 26.8922 27.5431 26.9694 27.4972L25.0973 26.3122C25.0973 26.3122 25.4078 26.0749 25.5719 25.9606C27.8208 24.4974 30.4567 23.7417 33.1393 23.7912C35.8222 23.7411 38.4586 24.4962 40.7082 25.9591C41.6145 26.5069 42.3731 27.268 42.9177 28.1762C43.4623 29.0844 43.7765 30.1121 43.8327 31.1696V38.1262H33.3649Z" fill="#CEDBDC"/>
<path d="M19.8194 26.1627C23.2975 26.0869 26.7359 26.9136 29.7994 28.5622C32.2896 30.027 33.6373 31.9181 33.6373 33.8356V41.0002H6V33.84C6 31.9167 7.35206 30.0241 9.8379 28.5666C12.9014 26.9162 16.3404 26.088 19.8194 26.1627V26.1627Z" stroke="#CEDBDC" stroke-width="1.6" stroke-miterlimit="10"/>
<path d="M29.5944 27.1018C29.5944 27.1018 28.6495 26.6887 27.8497 26.3533C27.2242 26.0911 25.777 25.719 25.777 25.719L28.6627 24.2542L32.1168 26.1585L29.5944 27.1018Z" fill="#1F2124"/>
<path d="M36.8571 35.5906H34.8092V38.5203H36.8571V35.5906Z" fill="#1F2124"/>
</svg>
