<svg width="35" height="36" viewBox="0 0 35 36" fill="none" xmlns="http://www.w3.org/2000/svg">
<path d="M13.4205 22.8919L12.8748 26.1317C12.8376 26.3488 12.862 26.5719 12.945 26.7758C13.028 26.9798 13.1663 27.1565 13.3444 27.286C13.5226 27.4154 13.7333 27.4925 13.953 27.5085C14.1726 27.5245 14.3923 27.4788 14.5873 27.3765L17.5012 25.8556L20.4151 27.3765C20.6102 27.4786 20.8299 27.5242 21.0496 27.5082C21.2692 27.4921 21.4799 27.4151 21.6581 27.2856C21.8363 27.1562 21.9748 26.9796 22.0579 26.7758C22.1411 26.5719 22.1657 26.3488 22.1289 26.1317L21.582 22.8932L23.9284 20.5927C24.0857 20.4387 24.1968 20.2439 24.2494 20.0301C24.3019 19.8163 24.2937 19.5921 24.2257 19.3828C24.1576 19.1734 24.0325 18.9872 23.8644 18.8451C23.6963 18.7031 23.4918 18.6107 23.2741 18.5786L20.0228 18.0942L18.5581 15.1547C18.4603 14.9576 18.3093 14.7917 18.1222 14.6757C17.9351 14.5597 17.7194 14.4983 17.4993 14.4983C17.2792 14.4983 17.0635 14.5597 16.8764 14.6757C16.6893 14.7917 16.5383 14.9576 16.4405 15.1547L14.9784 18.0942L11.7271 18.576C11.5093 18.6082 11.3049 18.7005 11.1368 18.8426C10.9686 18.9847 10.8435 19.1709 10.7755 19.3802C10.7075 19.5896 10.6993 19.8138 10.7518 20.0275C10.8043 20.2413 10.9155 20.4362 11.0728 20.5902L13.4205 22.8919Z" fill="#CEDBDC"/>
<path d="M31.4688 3.7804H27.7498V1.71511C27.7498 1.48977 27.7054 1.26664 27.6191 1.05847C27.5328 0.850301 27.4064 0.661172 27.247 0.501892C27.0876 0.342613 26.8983 0.216306 26.6901 0.130188C26.4819 0.0440713 26.2587 -0.000167437 26.0334 4.76208e-07H25.7612C25.3063 4.76208e-07 24.87 0.180699 24.5484 0.502345C24.2267 0.82399 24.046 1.26023 24.046 1.71511V3.7804H10.9131V1.71511C10.9131 1.26023 10.7324 0.82399 10.4107 0.502345C10.0891 0.180699 9.65282 4.76208e-07 9.19795 4.76208e-07H8.92573C8.70039 -0.000167437 8.47723 0.0440713 8.26899 0.130188C8.06076 0.216306 7.87153 0.342613 7.71214 0.501892C7.55274 0.661172 7.42629 0.850301 7.34002 1.05847C7.25374 1.26664 7.20934 1.48977 7.20934 1.71511V3.7804H3.53118C2.59497 3.78141 1.69739 4.15377 1.03538 4.81578C0.373375 5.47779 0.00101487 6.37537 0 7.31158V32.0286C0.00135228 32.9647 0.373821 33.8621 1.03575 34.524C1.69769 35.186 2.59507 35.5584 3.53118 35.5598H31.4688C32.4049 35.5584 33.3023 35.186 33.9642 34.524C34.6262 33.8621 34.9986 32.9647 35 32.0286V7.31158C34.9986 6.37547 34.6262 5.47808 33.9642 4.81615C33.3023 4.15422 32.4049 3.78175 31.4688 3.7804ZM31.0113 31.5672H3.99127V12.3266H31.0113V31.5672Z" fill="#CEDBDC"/>
</svg>
