<svg width="35" height="35" viewBox="0 0 35 35" fill="none" xmlns="http://www.w3.org/2000/svg">
<path d="M17.5 21.875C19.9162 21.875 21.875 19.9162 21.875 17.5C21.875 15.0838 19.9162 13.125 17.5 13.125C15.0838 13.125 13.125 15.0838 13.125 17.5C13.125 19.9162 15.0838 21.875 17.5 21.875Z" stroke="#CEDBDC" stroke-width="2" stroke-linecap="round" stroke-linejoin="round"/>
<path d="M28.2917 21.8749C28.0976 22.3148 28.0397 22.8027 28.1254 23.2758C28.2112 23.7489 28.4368 24.1854 28.773 24.5291L28.8605 24.6166C29.1316 24.8875 29.3468 25.2091 29.4935 25.5632C29.6403 25.9173 29.7159 26.2968 29.7159 26.6801C29.7159 27.0634 29.6403 27.443 29.4935 27.797C29.3468 28.1511 29.1316 28.4728 28.8605 28.7437C28.5896 29.0148 28.2679 29.23 27.9138 29.3768C27.5597 29.5235 27.1802 29.5991 26.7969 29.5991C26.4136 29.5991 26.0341 29.5235 25.68 29.3768C25.3259 29.23 25.0043 29.0148 24.7334 28.7437L24.6459 28.6562C24.3022 28.32 23.8656 28.0944 23.3926 28.0087C22.9195 27.9229 22.4316 27.9808 21.9917 28.1749C21.5604 28.3598 21.1925 28.6667 20.9334 29.058C20.6743 29.4492 20.5352 29.9077 20.5334 30.377V30.6249C20.5334 31.3985 20.2261 32.1403 19.6791 32.6873C19.1321 33.2343 18.3903 33.5416 17.6167 33.5416C16.8432 33.5416 16.1013 33.2343 15.5543 32.6873C15.0073 32.1403 14.7 31.3985 14.7 30.6249V30.4937C14.6887 30.011 14.5325 29.5428 14.2516 29.1501C13.9707 28.7574 13.5782 28.4582 13.125 28.2916C12.6852 28.0975 12.1973 28.0395 11.7242 28.1253C11.2511 28.2111 10.8146 28.4366 10.4709 28.7728L10.3834 28.8603C10.1125 29.1315 9.79082 29.3466 9.43674 29.4934C9.08266 29.6402 8.70313 29.7158 8.31983 29.7158C7.93654 29.7158 7.557 29.6402 7.20292 29.4934C6.84885 29.3466 6.52717 29.1315 6.25629 28.8603C5.98511 28.5895 5.76998 28.2678 5.6232 27.9137C5.47642 27.5596 5.40087 27.1801 5.40087 26.7968C5.40087 26.4135 5.47642 26.034 5.6232 25.6799C5.76998 25.3258 5.98511 25.0041 6.25629 24.7332L6.34379 24.6458C6.67999 24.3021 6.90552 23.8655 6.9913 23.3924C7.07707 22.9194 7.01917 22.4314 6.82504 21.9916C6.64018 21.5603 6.33323 21.1924 5.94197 20.9333C5.55071 20.6742 5.09223 20.5351 4.62296 20.5333H4.37504C3.60149 20.5333 2.85963 20.226 2.31265 19.679C1.76566 19.132 1.45837 18.3901 1.45837 17.6166C1.45837 16.843 1.76566 16.1012 2.31265 15.5542C2.85963 15.0072 3.60149 14.6999 4.37504 14.6999H4.50629C4.98899 14.6886 5.45713 14.5324 5.84985 14.2515C6.24257 13.9706 6.54171 13.5781 6.70837 13.1249C6.9025 12.6851 6.96041 12.1971 6.87463 11.7241C6.78885 11.251 6.56332 10.8144 6.22712 10.4708L6.13962 10.3833C5.86844 10.1124 5.65331 9.7907 5.50653 9.43662C5.35975 9.08254 5.2842 8.703 5.2842 8.31971C5.2842 7.93641 5.35975 7.55688 5.50653 7.2028C5.65331 6.84872 5.86844 6.52705 6.13962 6.25617C6.4105 5.98499 6.73218 5.76986 7.08626 5.62308C7.44033 5.4763 7.81987 5.40075 8.20317 5.40075C8.58646 5.40075 8.966 5.4763 9.32007 5.62308C9.67415 5.76986 9.99583 5.98499 10.2667 6.25617L10.3542 6.34367C10.6979 6.67987 11.1344 6.9054 11.6075 6.99117C12.0806 7.07695 12.5685 7.01904 13.0084 6.82492H13.125C13.5564 6.64006 13.9242 6.3331 14.1833 5.94185C14.4425 5.55059 14.5815 5.09211 14.5834 4.62284V4.37492C14.5834 3.60137 14.8907 2.8595 15.4376 2.31252C15.9846 1.76554 16.7265 1.45825 17.5 1.45825C18.2736 1.45825 19.0155 1.76554 19.5624 2.31252C20.1094 2.8595 20.4167 3.60137 20.4167 4.37492V4.50617C20.4186 4.97544 20.5576 5.43392 20.8167 5.82518C21.0758 6.21644 21.4437 6.52339 21.875 6.70825C22.3149 6.90238 22.8028 6.96029 23.2759 6.87451C23.749 6.78873 24.1855 6.5632 24.5292 6.227L24.6167 6.1395C24.8876 5.86832 25.2093 5.65319 25.5633 5.50641C25.9174 5.35963 26.297 5.28408 26.6802 5.28408C27.0635 5.28408 27.4431 5.35963 27.7972 5.50641C28.1512 5.65319 28.4729 5.86832 28.7438 6.1395C29.015 6.41038 29.2301 6.73206 29.3769 7.08613C29.5237 7.44021 29.5992 7.81975 29.5992 8.20304C29.5992 8.58634 29.5237 8.96587 29.3769 9.31995C29.2301 9.67403 29.015 9.9957 28.7438 10.2666L28.6563 10.3541C28.3201 10.6978 28.0946 11.1343 28.0088 11.6074C27.923 12.0805 27.9809 12.5684 28.175 13.0083V13.1249C28.3599 13.5562 28.6669 13.9241 29.0581 14.1832C29.4494 14.4423 29.9079 14.5814 30.3771 14.5833H30.625C31.3986 14.5833 32.1405 14.8905 32.6874 15.4375C33.2344 15.9845 33.5417 16.7264 33.5417 17.4999C33.5417 18.2735 33.2344 19.0153 32.6874 19.5623C32.1405 20.1093 31.3986 20.4166 30.625 20.4166H30.4938C30.0245 20.4185 29.566 20.5575 29.1748 20.8166C28.7835 21.0757 28.4766 21.4436 28.2917 21.8749V21.8749Z" stroke="#CEDBDC" stroke-width="2" stroke-linecap="round" stroke-linejoin="round"/>
</svg>
