<?xml version="1.0" standalone="no"?>
<!DOCTYPE svg PUBLIC "-//W3C//DTD SVG 20010904//EN"
 "http://www.w3.org/TR/2001/REC-SVG-20010904/DTD/svg10.dtd">
<svg version="1.0" xmlns="http://www.w3.org/2000/svg"
 width="840.000000pt" height="840.000000pt" viewBox="0 0 840.000000 840.000000"
 preserveAspectRatio="xMidYMid meet">
<metadata>
Created by potrace 1.14, written by Peter Selinger 2001-2017
</metadata>
<g transform="translate(0.000000,840.000000) scale(0.100000,-0.100000)"
fill="#000000" stroke="none">
<path d="M1839 7796 c-2 -2 -35 -6 -74 -10 -38 -4 -90 -11 -115 -15 -25 -5
-48 -7 -52 -5 -5 3 -8 1 -8 -3 0 -5 -8 -9 -17 -9 -23 -1 -51 -8 -138 -33 -250
-71 -495 -200 -715 -376 -38 -31 -260 -252 -260 -259 0 -4 -13 -21 -30 -39
-16 -18 -30 -35 -30 -38 0 -3 -9 -17 -20 -30 -12 -12 -31 -39 -42 -59 -12 -19
-24 -37 -27 -40 -25 -23 -151 -278 -190 -385 -37 -102 -80 -262 -86 -318 -2
-21 -6 -41 -8 -45 -3 -4 -9 -38 -13 -77 -11 -84 -12 -3604 -2 -3690 8 -65 12
-90 30 -175 6 -30 12 -59 13 -65 4 -33 54 -193 75 -240 9 -22 21 -51 25 -65
23 -79 164 -324 249 -435 29 -36 43 -53 93 -112 71 -82 147 -155 232 -223 25
-19 49 -40 55 -45 57 -52 283 -185 406 -238 66 -29 193 -76 220 -82 8 -2 51
-13 95 -24 44 -12 98 -24 120 -27 47 -6 80 -13 115 -21 40 -10 4785 -12 4877
-3 45 5 94 12 110 15 15 3 39 8 53 10 14 2 36 7 50 10 14 3 34 8 45 9 41 7
195 56 269 85 98 39 291 138 341 174 5 4 46 33 90 64 99 72 110 80 208 173 73
69 202 216 237 270 8 12 25 35 38 50 12 15 22 31 22 34 0 3 17 32 37 63 34 53
142 272 147 297 2 6 7 22 13 36 14 33 33 91 38 111 2 8 10 39 19 67 8 29 13
52 11 52 -3 0 0 11 5 25 10 26 24 104 38 205 9 73 9 3598 -1 3675 -4 33 -10
78 -13 100 -3 22 -6 47 -8 55 -1 8 -4 20 -8 25 -3 6 -9 30 -13 55 -7 43 -60
213 -86 275 -7 17 -13 32 -14 35 -13 40 -94 201 -128 255 -20 33 -99 148 -126
185 -79 107 -274 302 -371 370 -19 14 -37 28 -40 31 -11 14 -195 129 -206 129
-7 0 -14 3 -16 8 -5 12 -197 99 -283 127 -44 15 -87 29 -95 33 -8 3 -19 7 -25
8 -5 1 -12 3 -15 4 -9 3 -29 8 -110 25 -63 14 -122 25 -128 24 -4 -1 -9 0 -12
1 -3 1 -16 4 -30 7 -28 7 -4814 16 -4821 9z"/>
</g>
</svg>
