<svg width="37" height="36" viewBox="0 0 37 36" fill="none" xmlns="http://www.w3.org/2000/svg">
<path d="M35.7166 19.1273L35.7305 19.1134C35.7517 19.0892 35.7708 19.0632 35.7874 19.0356C35.7944 19.0287 35.7944 19.0217 35.8013 19.0148C35.8152 18.987 35.8374 18.9578 35.8513 18.93C35.8521 18.9248 35.8545 18.9199 35.8583 18.9162C35.8722 18.8884 35.886 18.8592 35.9013 18.8245C35.9013 18.8175 35.9013 18.8175 35.9083 18.8106C35.9222 18.7828 35.9291 18.7467 35.9444 18.712C35.9444 18.705 35.9444 18.6981 35.9513 18.6981C35.9616 18.666 35.9686 18.633 35.9722 18.5995C35.9709 18.587 35.9733 18.5745 35.9791 18.5634C35.986 18.5356 35.986 18.5064 35.993 18.4786C36.0024 18.3988 36.0024 18.3182 35.993 18.2384C35.9918 18.2097 35.9871 18.1812 35.9791 18.1536C35.9804 18.1412 35.978 18.1286 35.9722 18.1175C35.9652 18.0814 35.9583 18.0536 35.9513 18.0189C35.9513 18.012 35.9513 18.005 35.9444 18.005C35.9355 17.9711 35.9234 17.9381 35.9083 17.9064C35.9083 17.8995 35.9083 17.8995 35.9013 17.8925C35.8874 17.8647 35.8735 17.8286 35.8583 17.8008C35.8575 17.7956 35.8551 17.7907 35.8513 17.7869C35.8373 17.7572 35.8206 17.7289 35.8013 17.7022C35.7944 17.6953 35.7944 17.6883 35.7874 17.6814C35.7702 17.6543 35.7511 17.6283 35.7305 17.6036L35.7166 17.5897C35.6904 17.556 35.6621 17.524 35.6319 17.4939L28.6233 10.4881C28.3933 10.2674 28.086 10.1457 27.7674 10.149C27.4487 10.1523 27.144 10.2803 26.9186 10.5057C26.6933 10.7311 26.5652 11.0357 26.5619 11.3544C26.5586 11.6731 26.6803 11.9804 26.901 12.2104L31.8331 17.1425H12.2255C11.9031 17.1425 11.594 17.2705 11.3661 17.4984C11.1382 17.7264 11.0101 18.0355 11.0101 18.3578C11.0101 18.6801 11.1382 18.9892 11.3661 19.2172C11.594 19.4451 11.9031 19.5731 12.2255 19.5731H31.8401L26.9427 24.4705C26.8296 24.5832 26.7398 24.717 26.6784 24.8643C26.617 25.0116 26.5853 25.1696 26.5849 25.3292C26.5843 25.6516 26.7117 25.961 26.9392 26.1893C27.0518 26.3024 27.1856 26.3922 27.333 26.4536C27.4803 26.515 27.6383 26.5467 27.7979 26.5471C28.1202 26.5477 28.4296 26.4203 28.658 26.1928L35.6235 19.2273C35.6596 19.1842 35.6874 19.1606 35.7166 19.1273Z" fill="#1A91FA" stroke="#1A91FA" stroke-width="0.2" stroke-miterlimit="10"/>
<path d="M7.59747 3.43064H16.6686C16.991 3.43064 17.3001 3.3026 17.528 3.07469C17.7559 2.84677 17.884 2.53765 17.884 2.21532C17.884 1.893 17.7559 1.58388 17.528 1.35596C17.3001 1.12804 16.991 1 16.6686 1H7.59747C5.84861 1.00294 4.17223 1.69897 2.9356 2.9356C1.69897 4.17223 1.00294 5.84861 1 7.59747L1 29.1191C1.00294 30.8679 1.69897 32.5443 2.9356 33.781C4.17223 35.0176 5.84861 35.7136 7.59747 35.7166H16.5186C16.841 35.7166 17.1501 35.5885 17.378 35.3606C17.6059 35.1327 17.7339 34.8236 17.7339 34.5012C17.7339 34.1789 17.6059 33.8698 17.378 33.6419C17.1501 33.414 16.841 33.2859 16.5186 33.2859H7.59747C6.49236 33.2859 5.43251 32.8469 4.65108 32.0655C3.86965 31.284 3.43064 30.2242 3.43064 29.1191V7.59747C3.43064 6.49236 3.86965 5.43251 4.65108 4.65108C5.43251 3.86965 6.49236 3.43064 7.59747 3.43064Z" fill="#1A91FA" stroke="#1A91FA" stroke-width="0.2" stroke-miterlimit="10"/>
</svg>
