<svg width="23" height="24" viewBox="0 0 23 24" fill="none" xmlns="http://www.w3.org/2000/svg">
<path d="M12 24C11.0411 24.0131 10.1135 23.6593 9.40706 23.0108C8.70061 22.3624 8.26877 21.4684 8.19996 20.5119H3.54296C3.21249 20.5235 2.88307 20.4684 2.57435 20.3499C2.26563 20.2313 1.98394 20.0519 1.74607 19.8222C1.5082 19.5925 1.31902 19.3172 1.18981 19.0128C1.06061 18.7084 0.994019 18.3811 0.994019 18.0505C0.994019 17.7198 1.06061 17.3925 1.18981 17.0881C1.31902 16.7837 1.5082 16.5084 1.74607 16.2787C1.98394 16.049 2.26563 15.8696 2.57435 15.751C2.88307 15.6325 3.21249 15.5774 3.54296 15.589C3.54296 15.578 3.54296 12.574 3.54296 10.789V10.67C3.5429 8.9815 4.07706 7.33633 5.06896 5.96995C6.05952 4.59433 7.44367 3.55117 9.03896 2.97795V2.86995C9.06345 2.10083 9.38619 1.3714 9.93891 0.835995C10.4916 0.300593 11.231 0.0012207 12.0005 0.0012207C12.77 0.0012207 13.5093 0.300593 14.062 0.835995C14.6147 1.3714 14.9375 2.10083 14.962 2.86995V2.97795C16.5579 3.54951 17.9433 4.59086 18.936 5.96495C19.9279 7.33133 20.462 8.9765 20.462 10.665V15.587C20.7912 15.5776 21.1189 15.6343 21.4258 15.7538C21.7328 15.8733 22.0126 16.0532 22.2488 16.2827C22.4849 16.5123 22.6727 16.7868 22.8009 17.0902C22.9291 17.3936 22.9951 17.7196 22.9951 18.049C22.9951 18.3783 22.9291 18.7043 22.8009 19.0077C22.6727 19.3111 22.4849 19.5856 22.2488 19.8152C22.0126 20.0447 21.7328 20.2246 21.4258 20.3441C21.1189 20.4636 20.7912 20.5203 20.462 20.511H15.8C15.7312 21.4675 15.2994 22.3616 14.5929 23.0102C13.8865 23.6588 12.9589 24.0129 12 24V24ZM9.89497 20.513C9.96192 21.0239 10.2124 21.493 10.5997 21.8328C10.987 22.1727 11.4847 22.3601 12 22.3601C12.5152 22.3601 13.0129 22.1727 13.4002 21.8328C13.7875 21.493 14.038 21.0239 14.105 20.513H9.89497ZM12 1.64095C11.6689 1.63614 11.3493 1.7628 11.1115 1.99318C10.8736 2.22356 10.7368 2.53885 10.731 2.86995V4.18795L10.119 4.35895C8.72939 4.73636 7.50061 5.55622 6.61863 6.69441C5.73666 7.8326 5.24952 9.22716 5.23096 10.667V15.589C5.22386 16.0309 5.04172 16.452 4.72451 16.7598C4.40731 17.0677 3.98094 17.2371 3.53896 17.231C3.32122 17.231 3.1124 17.3174 2.95843 17.4714C2.80446 17.6254 2.71796 17.8342 2.71796 18.052C2.71796 18.2697 2.80446 18.4785 2.95843 18.6325C3.1124 18.7865 3.32122 18.8729 3.53896 18.8729H20.457C20.6747 18.8729 20.8835 18.7865 21.0375 18.6325C21.1915 18.4785 21.278 18.2697 21.278 18.052C21.278 17.8342 21.1915 17.6254 21.0375 17.4714C20.8835 17.3174 20.6747 17.231 20.457 17.231C20.0152 17.2368 19.5891 17.0673 19.2721 16.7595C18.9551 16.4517 18.7731 16.0307 18.766 15.589V10.667C18.7473 9.22703 18.2601 7.83237 17.3779 6.69417C16.4957 5.55596 15.2667 4.73618 13.877 4.35895L13.265 4.18795V2.86995C13.2592 2.53955 13.1229 2.22487 12.8859 1.9946C12.6489 1.76434 12.3304 1.6372 12 1.64095V1.64095Z" fill="white"/>
</svg>
