<svg width="105" height="90" viewBox="0 0 105 90" fill="none" xmlns="http://www.w3.org/2000/svg">
<rect width="105" height="90" rx="24.8921" fill="#144884"/>
<path d="M27.668 43.092C27.668 40.764 27.092 39.036 25.94 37.908C24.812 36.756 23.336 36.18 21.512 36.18C21.08 36.18 20.672 36.192 20.288 36.216C19.904 36.24 19.52 36.288 19.136 36.36V49.752C19.448 49.824 19.82 49.884 20.252 49.932C20.708 49.956 21.14 49.968 21.548 49.968C23.42 49.968 24.908 49.404 26.012 48.276C27.116 47.124 27.668 45.396 27.668 43.092ZM33.5 43.02C33.5 44.94 33.212 46.62 32.636 48.06C32.06 49.5 31.244 50.7 30.188 51.66C29.156 52.62 27.896 53.34 26.408 53.82C24.944 54.3 23.312 54.54 21.512 54.54C21.104 54.54 20.636 54.528 20.108 54.504C19.604 54.48 19.076 54.432 18.524 54.36C17.996 54.312 17.456 54.228 16.904 54.108C16.352 54.012 15.848 53.88 15.392 53.712C14.144 53.256 13.52 52.44 13.52 51.264V34.128C13.52 33.648 13.64 33.276 13.88 33.012C14.144 32.748 14.516 32.532 14.996 32.364C15.98 32.052 17.024 31.848 18.128 31.752C19.232 31.656 20.24 31.608 21.152 31.608C23 31.608 24.68 31.836 26.192 32.292C27.704 32.748 29 33.456 30.08 34.416C31.16 35.352 32 36.54 32.6 37.98C33.2 39.396 33.5 41.076 33.5 43.02ZM54.8511 37.836C54.8511 38.916 54.5511 39.852 53.9511 40.644C53.3751 41.412 52.5351 42.012 51.4311 42.444C52.8231 42.9 53.8671 43.572 54.5631 44.46C55.2591 45.348 55.6071 46.416 55.6071 47.664C55.6071 49.992 54.7431 51.72 53.0151 52.848C51.3111 53.976 48.8391 54.54 45.5991 54.54C45.1671 54.54 44.6751 54.528 44.1231 54.504C43.5951 54.48 43.0431 54.432 42.4671 54.36C41.9151 54.312 41.3511 54.228 40.7751 54.108C40.2231 54.012 39.7191 53.88 39.2631 53.712C38.0151 53.256 37.3911 52.44 37.3911 51.264V34.128C37.3911 33.648 37.5111 33.276 37.7511 33.012C38.0151 32.748 38.3871 32.544 38.8671 32.4C39.6591 32.136 40.6431 31.944 41.8191 31.824C42.9951 31.68 44.2071 31.608 45.4551 31.608C48.4551 31.608 50.7711 32.124 52.4031 33.156C54.0351 34.164 54.8511 35.724 54.8511 37.836ZM49.8471 47.412C49.8471 45.708 48.7551 44.856 46.5711 44.856H42.8631V49.896C43.2471 49.992 43.7271 50.064 44.3031 50.112C44.8791 50.16 45.4311 50.184 45.9591 50.184C47.1111 50.184 48.0471 49.968 48.7671 49.536C49.4871 49.08 49.8471 48.372 49.8471 47.412ZM42.8631 40.86H46.2111C47.1471 40.86 47.8791 40.644 48.4071 40.212C48.9351 39.78 49.1991 39.144 49.1991 38.304C49.1991 37.536 48.8871 36.948 48.2631 36.54C47.6631 36.108 46.7511 35.892 45.5271 35.892C45.0711 35.892 44.5911 35.916 44.0871 35.964C43.5831 35.988 43.1751 36.024 42.8631 36.072V40.86ZM74.1195 48.564C73.8315 48.804 73.4595 48.996 73.0035 49.14C72.5475 49.284 72.0315 49.356 71.4555 49.356C70.6875 49.356 70.0395 49.26 69.5115 49.068C69.0075 48.876 68.6715 48.54 68.5035 48.06C67.7355 45.828 67.0755 43.98 66.5235 42.516C65.9955 41.028 65.5755 39.744 65.2635 38.664H65.1195C65.0475 40.152 64.9875 41.52 64.9395 42.768C64.8915 43.992 64.8435 45.192 64.7955 46.368C64.7715 47.544 64.7355 48.732 64.6875 49.932C64.6395 51.132 64.5795 52.452 64.5075 53.892C64.2435 53.988 63.8835 54.072 63.4275 54.144C62.9955 54.24 62.5395 54.288 62.0595 54.288C61.1235 54.288 60.3915 54.132 59.8635 53.82C59.3355 53.484 59.0715 52.92 59.0715 52.128C59.0715 51.672 59.0835 51.048 59.1075 50.256C59.1555 49.44 59.2035 48.516 59.2515 47.484C59.3235 46.428 59.3955 45.3 59.4675 44.1C59.5635 42.9 59.6475 41.688 59.7195 40.464C59.8155 39.216 59.8995 37.992 59.9715 36.792C60.0435 35.568 60.1155 34.44 60.1875 33.408C60.3795 33.144 60.7635 32.856 61.3395 32.544C61.9395 32.208 62.7675 32.04 63.8235 32.04C64.9515 32.04 65.8395 32.22 66.4875 32.58C67.1355 32.94 67.6275 33.528 67.9635 34.344C68.2275 34.992 68.5035 35.724 68.7915 36.54C69.0795 37.332 69.3675 38.148 69.6555 38.988C69.9435 39.828 70.2195 40.668 70.4835 41.508C70.7715 42.324 71.0355 43.08 71.2755 43.776H71.4555C72.1275 41.664 72.7995 39.624 73.4715 37.656C74.1435 35.664 74.7315 33.996 75.2355 32.652C75.5715 32.484 75.9915 32.34 76.4955 32.22C77.0235 32.1 77.5995 32.04 78.2235 32.04C79.3035 32.04 80.1675 32.196 80.8155 32.508C81.4635 32.82 81.8475 33.276 81.9675 33.876C82.0635 34.356 82.1715 35.088 82.2915 36.072C82.4115 37.056 82.5315 38.184 82.6515 39.456C82.7715 40.728 82.8915 42.072 83.0115 43.488C83.1315 44.88 83.2395 46.236 83.3355 47.556C83.4315 48.852 83.5155 50.04 83.5875 51.12C83.6595 52.2 83.7075 53.04 83.7315 53.64C83.3715 53.856 82.9875 54.012 82.5795 54.108C82.1715 54.228 81.6555 54.288 81.0315 54.288C80.2395 54.288 79.5555 54.144 78.9795 53.856C78.4275 53.568 78.1275 53.004 78.0795 52.164C77.9115 49.38 77.7915 46.836 77.7195 44.532C77.6715 42.204 77.6115 40.296 77.5395 38.808H77.3595C77.0715 39.816 76.6515 41.088 76.0995 42.624C75.5715 44.16 74.9115 46.14 74.1195 48.564ZM86.5333 51.336C86.5333 50.424 86.8093 49.656 87.3613 49.032C87.9373 48.408 88.7293 48.096 89.7373 48.096C90.7213 48.096 91.5013 48.408 92.0773 49.032C92.6533 49.656 92.9413 50.424 92.9413 51.336C92.9413 52.248 92.6533 53.016 92.0773 53.64C91.5013 54.264 90.7213 54.576 89.7373 54.576C88.7293 54.576 87.9373 54.264 87.3613 53.64C86.8093 53.016 86.5333 52.248 86.5333 51.336Z" fill="#EBDBDB"/>
</svg>
