<svg width="80" height="24" viewBox="0 0 80 24" fill="none" xmlns="http://www.w3.org/2000/svg">
<path d="M14.668 12.092C14.668 9.764 14.092 8.036 12.94 6.908C11.812 5.756 10.336 5.18 8.512 5.18C8.08 5.18 7.672 5.192 7.288 5.216C6.904 5.24 6.52 5.288 6.136 5.36V18.752C6.448 18.824 6.82 18.884 7.252 18.932C7.708 18.956 8.14 18.968 8.548 18.968C10.42 18.968 11.908 18.404 13.012 17.276C14.116 16.124 14.668 14.396 14.668 12.092ZM20.5 12.02C20.5 13.94 20.212 15.62 19.636 17.06C19.06 18.5 18.244 19.7 17.188 20.66C16.156 21.62 14.896 22.34 13.408 22.82C11.944 23.3 10.312 23.54 8.512 23.54C8.104 23.54 7.636 23.528 7.108 23.504C6.604 23.48 6.076 23.432 5.524 23.36C4.996 23.312 4.456 23.228 3.904 23.108C3.352 23.012 2.848 22.88 2.392 22.712C1.144 22.256 0.52 21.44 0.52 20.264V3.128C0.52 2.648 0.64 2.276 0.88 2.012C1.144 1.748 1.516 1.532 1.996 1.364C2.98 1.052 4.024 0.847999 5.128 0.751999C6.232 0.655999 7.24 0.607999 8.152 0.607999C10 0.607999 11.68 0.835999 13.192 1.292C14.704 1.748 16 2.456 17.08 3.416C18.16 4.352 19 5.54 19.6 6.98C20.2 8.396 20.5 10.076 20.5 12.02ZM41.8511 6.836C41.8511 7.916 41.5511 8.852 40.9511 9.644C40.3751 10.412 39.5351 11.012 38.4311 11.444C39.8231 11.9 40.8671 12.572 41.5631 13.46C42.2591 14.348 42.6071 15.416 42.6071 16.664C42.6071 18.992 41.7431 20.72 40.0151 21.848C38.3111 22.976 35.8391 23.54 32.5991 23.54C32.1671 23.54 31.6751 23.528 31.1231 23.504C30.5951 23.48 30.0431 23.432 29.4671 23.36C28.9151 23.312 28.3511 23.228 27.7751 23.108C27.2231 23.012 26.7191 22.88 26.2631 22.712C25.0151 22.256 24.3911 21.44 24.3911 20.264V3.128C24.3911 2.648 24.5111 2.276 24.7511 2.012C25.0151 1.748 25.3871 1.544 25.8671 1.4C26.6591 1.136 27.6431 0.943999 28.8191 0.823998C29.9951 0.679998 31.2071 0.607999 32.4551 0.607999C35.4551 0.607999 37.7711 1.124 39.4031 2.156C41.0351 3.164 41.8511 4.724 41.8511 6.836ZM36.8471 16.412C36.8471 14.708 35.7551 13.856 33.5711 13.856H29.8631V18.896C30.2471 18.992 30.7271 19.064 31.3031 19.112C31.8791 19.16 32.4311 19.184 32.9591 19.184C34.1111 19.184 35.0471 18.968 35.7671 18.536C36.4871 18.08 36.8471 17.372 36.8471 16.412ZM29.8631 9.86H33.2111C34.1471 9.86 34.8791 9.644 35.4071 9.212C35.9351 8.78 36.1991 8.144 36.1991 7.304C36.1991 6.536 35.8871 5.948 35.2631 5.54C34.6631 5.108 33.7511 4.892 32.5271 4.892C32.0711 4.892 31.5911 4.916 31.0871 4.964C30.5831 4.988 30.1751 5.024 29.8631 5.072V9.86ZM61.1195 17.564C60.8315 17.804 60.4595 17.996 60.0035 18.14C59.5475 18.284 59.0315 18.356 58.4555 18.356C57.6875 18.356 57.0395 18.26 56.5115 18.068C56.0075 17.876 55.6715 17.54 55.5035 17.06C54.7355 14.828 54.0755 12.98 53.5235 11.516C52.9955 10.028 52.5755 8.744 52.2635 7.664H52.1195C52.0475 9.152 51.9875 10.52 51.9395 11.768C51.8915 12.992 51.8435 14.192 51.7955 15.368C51.7715 16.544 51.7355 17.732 51.6875 18.932C51.6395 20.132 51.5795 21.452 51.5075 22.892C51.2435 22.988 50.8835 23.072 50.4275 23.144C49.9955 23.24 49.5395 23.288 49.0595 23.288C48.1235 23.288 47.3915 23.132 46.8635 22.82C46.3355 22.484 46.0715 21.92 46.0715 21.128C46.0715 20.672 46.0835 20.048 46.1075 19.256C46.1555 18.44 46.2035 17.516 46.2515 16.484C46.3235 15.428 46.3955 14.3 46.4675 13.1C46.5635 11.9 46.6475 10.688 46.7195 9.464C46.8155 8.216 46.8995 6.992 46.9715 5.792C47.0435 4.568 47.1155 3.44 47.1875 2.408C47.3795 2.144 47.7635 1.856 48.3395 1.544C48.9395 1.208 49.7675 1.04 50.8235 1.04C51.9515 1.04 52.8395 1.22 53.4875 1.58C54.1355 1.94 54.6275 2.528 54.9635 3.344C55.2275 3.992 55.5035 4.724 55.7915 5.54C56.0795 6.332 56.3675 7.148 56.6555 7.988C56.9435 8.828 57.2195 9.668 57.4835 10.508C57.7715 11.324 58.0355 12.08 58.2755 12.776H58.4555C59.1275 10.664 59.7995 8.624 60.4715 6.656C61.1435 4.664 61.7315 2.996 62.2355 1.652C62.5715 1.484 62.9915 1.34 63.4955 1.22C64.0235 1.1 64.5995 1.04 65.2235 1.04C66.3035 1.04 67.1675 1.196 67.8155 1.508C68.4635 1.82 68.8475 2.276 68.9675 2.876C69.0635 3.356 69.1715 4.088 69.2915 5.072C69.4115 6.056 69.5315 7.184 69.6515 8.456C69.7715 9.728 69.8915 11.072 70.0115 12.488C70.1315 13.88 70.2395 15.236 70.3355 16.556C70.4315 17.852 70.5155 19.04 70.5875 20.12C70.6595 21.2 70.7075 22.04 70.7315 22.64C70.3715 22.856 69.9875 23.012 69.5795 23.108C69.1715 23.228 68.6555 23.288 68.0315 23.288C67.2395 23.288 66.5555 23.144 65.9795 22.856C65.4275 22.568 65.1275 22.004 65.0795 21.164C64.9115 18.38 64.7915 15.836 64.7195 13.532C64.6715 11.204 64.6115 9.296 64.5395 7.808H64.3595C64.0715 8.816 63.6515 10.088 63.0995 11.624C62.5715 13.16 61.9115 15.14 61.1195 17.564ZM73.5333 20.336C73.5333 19.424 73.8093 18.656 74.3613 18.032C74.9373 17.408 75.7293 17.096 76.7373 17.096C77.7213 17.096 78.5013 17.408 79.0773 18.032C79.6533 18.656 79.9413 19.424 79.9413 20.336C79.9413 21.248 79.6533 22.016 79.0773 22.64C78.5013 23.264 77.7213 23.576 76.7373 23.576C75.7293 23.576 74.9373 23.264 74.3613 22.64C73.8093 22.016 73.5333 21.248 73.5333 20.336Z" fill="#EBDBDB"/>
</svg>
